<svg id="icon-house" xmlns="http://www.w3.org/2000/svg" width="14" height="12" viewBox="0 0 14 12">
  <path id="Path_52" data-name="Path 52" d="M70.7,120.939l-4.993,4.433a.137.137,0,0,1,0,.028.137.137,0,0,0,0,.028v4.489a.6.6,0,0,0,.165.421.517.517,0,0,0,.391.178h3.334v-3.592h2.223v3.592h3.334a.516.516,0,0,0,.391-.178.6.6,0,0,0,.165-.421v-4.489a.141.141,0,0,0-.009-.056Z" transform="translate(-63.7 -118.517)" fill="#69af4b"/>
  <path id="Path_53" data-name="Path 53" d="M13.9,52.84l-1.9-1.7V47.321a.3.3,0,0,0-.078-.215.26.26,0,0,0-.2-.084H10.056a.261.261,0,0,0-.2.084.3.3,0,0,0-.078.215v1.824L7.659,47.237a1.017,1.017,0,0,0-1.32,0L.1,52.84a.279.279,0,0,0-.1.2.319.319,0,0,0,.061.22l.538.692a.29.29,0,0,0,.182.1A.306.306,0,0,0,.99,53.99L7,48.593l6.009,5.4a.256.256,0,0,0,.182.065h.026a.291.291,0,0,0,.182-.1l.538-.692a.319.319,0,0,0,.061-.22A.28.28,0,0,0,13.9,52.84Z" transform="translate(0.001 -46.994)" fill="#69af4b"/>
</svg>
