<svg id="icon-houses" xmlns="http://www.w3.org/2000/svg" width="14.3" height="10.433" viewBox="0 0 14.3 10.433">
  <path id="Path_47" data-name="Path 47" d="M14.157,41.436l-4.8-3.62a.359.359,0,0,0-.432,0l-.789.6-.789-.6a.359.359,0,0,0-.432,0l-.77.58-.77-.58a.359.359,0,0,0-.432,0l-4.8,3.62A.359.359,0,0,0,0,41.722v6.1a.359.359,0,0,0,.359.359H13.941a.359.359,0,0,0,.359-.359v-6.1a.359.359,0,0,0-.143-.286Zm-.575,6.023H12.29V41.722a.359.359,0,0,0-.143-.286L8.731,38.86l.409-.309,4.442,3.35Zm-3.264,0V41.722a.359.359,0,0,0-.143-.286L6.74,38.845l.39-.294,4.442,3.35v5.558H10.319Zm-4.572,0H4.572v-2.6H5.747v2.6Zm.717,0V44.5a.359.359,0,0,0-.359-.359H4.213a.359.359,0,0,0-.359.359v2.959H.717V41.9l4.442-3.35L9.6,41.9v5.558Z" transform="translate(0 -37.743)" fill="#69af4b"/>
</svg>
