<svg xmlns="http://www.w3.org/2000/svg" width="36" height="31" viewBox="0 0 36 31">
  <path d="M18,6.583c-8.357,0-15.429,4.722-15.429,10.333,0,3.007,2.01,5.873,5.485,7.851L9.8,25.776l-.543,1.938a14.622,14.622,0,0,1-1.407,3.472,19.887,19.887,0,0,0,5.525-3.451l.864-.767,1.146.121A22.708,22.708,0,0,0,18,27.25c8.357,0,15.429-4.722,15.429-10.333S26.357,6.583,18,6.583ZM36,16.917c0,7.144-8.056,12.917-18,12.917a27.624,27.624,0,0,1-2.913-.161,21.989,21.989,0,0,1-9.24,4.884A16.442,16.442,0,0,1,3.556,35h-.1a.934.934,0,0,1-.864-.767v-.021c-.1-.505.24-.807.543-1.17a12.827,12.827,0,0,0,3.657-6.014C2.652,24.667,0,21.014,0,16.917,0,9.772,8.057,4,18,4h0c9.944,0,18,5.772,18,12.917Z" transform="translate(-0.001 -4)" fill="#69af4b"/>
</svg>