<svg xmlns="http://www.w3.org/2000/svg" width="14.001" height="11.504" viewBox="0 0 14.001 11.504">
  <path id="commenting" d="M5,8.894a1,1,0,1,0-1,.979A.987.987,0,0,0,5,8.894Zm3,0a1,1,0,1,0-1,.979A.987.987,0,0,0,8,8.894Zm3,0a1,1,0,1,0-1,.979A.987.987,0,0,0,11,8.894Zm3,0c0,2.707-3.133,4.894-7,4.894a9.605,9.605,0,0,1-1.649-.138,6.8,6.8,0,0,1-3.4,1.751c-.211.038-.438.076-.672.1a.256.256,0,0,1-.274-.184h0c-.032-.122.063-.2.157-.283a3.118,3.118,0,0,0,1.281-2.424A4.476,4.476,0,0,1,0,8.894C0,6.187,3.132,4,7,4s7,2.187,7,4.894Z" transform="translate(0.001 -4)" fill="#69af4b"/>
</svg>
