<?xml version="1.0" encoding="UTF-8"?>
<svg id="Layer_1" data-name="Layer 1" xmlns="http://www.w3.org/2000/svg" viewBox="0 0 346.13 30.78">
  <defs>
    <style>
      .cls-1 {
        fill: #65b14a;
      }

      .cls-2 {
        fill: #283a42;
      }
    </style>
  </defs>
  <path id="Tracé_177" data-name="Tracé 177" class="cls-2" d="m11.34,30.29h5.01L28.04,1.92h-6.69l-7.13,18.59h-.08L7.13,1.92H0l11.34,28.37Z"/>
  <path id="Tracé_178" data-name="Tracé 178" class="cls-2" d="m30.73,30.29h6.01V10.82h-6.01v19.47h0Zm-.48-25.6c0,1.92,1.56,3.48,3.48,3.48s3.48-1.56,3.48-3.48-1.56-3.48-3.48-3.48h0c-1.92,0-3.48,1.56-3.48,3.48h0Z"/>
  <path id="Tracé_179" data-name="Tracé 179" class="cls-2" d="m47.08,30.29h6.37l7.69-19.47h-6.05l-4.56,13.22h-.08l-4.93-13.22h-6.49s8.05,19.47,8.05,19.47Z"/>
  <path id="Tracé_180" data-name="Tracé 180" class="cls-2" d="m63.35,30.29h6.01v-8.13c0-3.89.56-6.53,5.13-6.53.87.01,1.74.15,2.57.4v-5.49c-.66-.15-1.33-.22-2-.2-2.64,0-4.33,1.24-5.61,3.6h-.08v-3.12h-6.01v19.47h-.01Z"/>
  <path id="Tracé_181" data-name="Tracé 181" class="cls-2" d="m93.16,23.84c-.94,1.47-2.55,2.36-4.29,2.37-2.24.05-4.17-1.56-4.53-3.77h13.94v-1.88c0-6.21-3.52-10.21-9.13-10.21-6.01,0-10.82,4-10.82,10.21s4.81,10.22,10.82,10.22c3.17.02,6.19-1.39,8.21-3.84l-4.2-3.09h0Zm-8.82-5.49c.17-2.19,2.06-3.83,4.25-3.69,1.99-.04,3.65,1.54,3.69,3.53,0,.05,0,.11,0,.16h-7.94Z"/>
  <path id="Tracé_182" data-name="Tracé 182" class="cls-2" d="m126.03,23.84c-.94,1.47-2.55,2.36-4.29,2.37-2.24.05-4.17-1.56-4.53-3.77h13.94v-1.88c0-6.21-3.52-10.21-9.13-10.21-6.01,0-10.82,4-10.82,10.21s4.81,10.22,10.82,10.22c3.17.02,6.19-1.39,8.21-3.84l-4.2-3.09h0Zm-8.82-5.49c.17-2.19,2.06-3.83,4.25-3.69,1.99-.04,3.65,1.54,3.69,3.53,0,.05,0,.11,0,.16h-7.94Z"/>
  <path id="Tracé_183" data-name="Tracé 183" class="cls-2" d="m134.8,30.29h6.01v-9.7c0-2.53.48-4.97,3.61-4.97s3.13,2.89,3.13,5.13v9.54h6.01v-10.74c0-5.21-1.12-9.21-7.21-9.21-2.33-.09-4.51,1.11-5.69,3.12h-.08v-2.64h-5.76v19.47h-.02Z"/>
  <path id="Tracé_184" data-name="Tracé 184" class="cls-1" d="m168.66,30.29h6.01v-8.13c0-3.89.56-6.53,5.13-6.53.87.01,1.73.15,2.56.4v-5.49c-.66-.15-1.33-.22-2-.2-2.64,0-4.33,1.24-5.61,3.6h-.08v-3.12h-6.01v19.47Z"/>
  <path id="Tracé_185" data-name="Tracé 185" class="cls-1" d="m198.48,23.84c-.94,1.47-2.55,2.36-4.29,2.37-2.24.04-4.17-1.56-4.53-3.77h13.95v-1.88c0-6.21-3.52-10.21-9.13-10.21-6.01,0-10.82,4-10.82,10.21s4.8,10.22,10.82,10.22c3.17.02,6.19-1.39,8.21-3.84l-4.2-3.09h-.01Zm-8.82-5.34c.17-2.27,2.06-3.99,4.25-3.84,1.99-.05,3.64,1.59,3.69,3.66,0,.06,0,.12,0,.18h-7.94Zm-.04-10.81h5.29l6.93-5.77h-8.17l-4.05,5.77h0Z"/>
  <path id="Tracé_186" data-name="Tracé 186" class="cls-1" d="m221.95,12.9c-1.8-1.92-4.64-2.56-7.21-2.56-4.09,0-8.17,2-8.17,6.56,0,7.42,10.14,4.77,10.14,7.9,0,1.04-1.36,1.4-2.73,1.4-1.68.02-3.26-.78-4.25-2.13l-3.64,4.05c1.92,1.96,4.93,2.64,7.65,2.64,4.17,0,8.98-1.44,8.98-6.41,0-7.42-10.14-4.97-10.14-7.86,0-1.16,1.2-1.6,2.21-1.6,1.36-.03,2.65.57,3.49,1.64l3.68-3.64h0Z"/>
  <path id="Tracé_187" data-name="Tracé 187" class="cls-1" d="m225.89,30.29h6.01V10.82h-6.01v19.47Zm-.48-25.6c0,1.92,1.56,3.48,3.48,3.48s3.48-1.56,3.48-3.48-1.56-3.48-3.48-3.48h0c-1.92,0-3.48,1.56-3.48,3.48h0Z"/>
  <path id="Tracé_188" data-name="Tracé 188" class="cls-1" d="m256.66,0h-6.01v12.9h-.08c-1.36-1.88-3.69-2.56-6.17-2.56-5.53,0-8.89,4.96-8.89,10.38,0,5.89,3.8,10.06,9.57,10.06,2.36-.03,4.56-1.15,5.97-3.04h.08v2.56h5.53V0h0Zm-5.95,21.16c0,2.57-1.72,4.33-4.6,4.33-2.4.13-4.46-1.55-4.61-3.75-.01-.19,0-.38,0-.57-.05-2.33,1.96-4.26,4.5-4.31,2.54-.05,4.64,1.8,4.69,4.13,0,.06,0,.11,0,.17Z"/>
  <path id="Tracé_189" data-name="Tracé 189" class="cls-1" d="m275.69,23.84c-.94,1.47-2.55,2.36-4.29,2.37-2.24.05-4.17-1.56-4.53-3.77h13.94v-1.88c0-6.21-3.52-10.21-9.13-10.21-6.01,0-10.82,4-10.82,10.21s4.8,10.22,10.82,10.22c3.17.02,6.19-1.39,8.21-3.84l-4.2-3.09h0Zm-8.82-5.49c.17-2.19,2.06-3.83,4.25-3.69,1.99-.05,3.64,1.53,3.69,3.52,0,.06,0,.11,0,.17h-7.94Z"/>
  <path id="Tracé_190" data-name="Tracé 190" class="cls-1" d="m284.47,30.29h6.01v-9.7c0-2.53.48-4.97,3.61-4.97s3.13,2.89,3.13,5.13v9.54h6.01v-10.74c0-5.21-1.12-9.21-7.21-9.21-2.33-.09-4.51,1.11-5.69,3.12h-.08v-2.64h-5.76v19.47h-.02Z"/>
  <path id="Tracé_191" data-name="Tracé 191" class="cls-1" d="m324.62,12.94c-1.88-1.74-4.37-2.67-6.93-2.6-6.01,0-10.81,4-10.81,10.21s4.8,10.22,10.81,10.22c2.56.07,5.05-.86,6.93-2.6l-3.97-4.17c-.71.92-1.81,1.46-2.97,1.48-2.51.15-4.67-1.77-4.82-4.28-.01-.22-.01-.43,0-.65-.21-2.51,1.65-4.71,4.16-4.92.22-.02.43-.02.65,0,1.17,0,2.26.55,2.97,1.48l3.97-4.17h0Z"/>
  <path id="Tracé_192" data-name="Tracé 192" class="cls-1" d="m341.01,23.84c-.94,1.47-2.55,2.36-4.29,2.37-2.24.05-4.17-1.56-4.53-3.77h13.94v-1.88c0-6.21-3.52-10.21-9.13-10.21-6.01,0-10.82,4-10.82,10.21s4.8,10.22,10.82,10.22c3.17.02,6.19-1.39,8.21-3.84l-4.2-3.09h0Zm-8.82-5.49c.17-2.19,2.06-3.83,4.25-3.69,1.99-.04,3.65,1.54,3.69,3.53,0,.05,0,.11,0,.16h-7.94Z"/>
</svg>