<svg xmlns="http://www.w3.org/2000/svg" width="20.723" height="20" viewBox="0 0 20.723 16.312">
  <path id="th-list" d="M5.921,14.976V17.2a1.112,1.112,0,0,1-1.11,1.112H1.11A1.112,1.112,0,0,1,0,17.2V14.976a1.112,1.112,0,0,1,1.11-1.112h3.7A1.112,1.112,0,0,1,5.921,14.976Zm0-5.932v2.224a1.112,1.112,0,0,1-1.11,1.112H1.11A1.112,1.112,0,0,1,0,11.268V9.044A1.112,1.112,0,0,1,1.11,7.932h3.7A1.112,1.112,0,0,1,5.921,9.044Zm14.8,5.932V17.2a1.112,1.112,0,0,1-1.11,1.112H8.511A1.112,1.112,0,0,1,7.4,17.2V14.976a1.112,1.112,0,0,1,1.11-1.112h11.1A1.112,1.112,0,0,1,20.723,14.976ZM5.921,3.112V5.337a1.112,1.112,0,0,1-1.11,1.112H1.11A1.112,1.112,0,0,1,0,5.337V3.112A1.112,1.112,0,0,1,1.11,2h3.7A1.112,1.112,0,0,1,5.921,3.112Zm14.8,5.932v2.224a1.112,1.112,0,0,1-1.11,1.112H8.511A1.112,1.112,0,0,1,7.4,11.268V9.044a1.112,1.112,0,0,1,1.11-1.112h11.1A1.112,1.112,0,0,1,20.723,9.044Zm0-5.932V5.337a1.112,1.112,0,0,1-1.11,1.112H8.511A1.112,1.112,0,0,1,7.4,5.337V3.112A1.112,1.112,0,0,1,8.511,2h11.1A1.112,1.112,0,0,1,20.723,3.112Z" transform="translate(0 -2)" fill="#69af4b"/>
</svg>