<?xml version="1.0" encoding="utf-8"?>
<!-- Generator: Adobe Illustrator 27.7.0, SVG Export Plug-In . SVG Version: 6.00 Build 0)  -->
<svg version="1.1" id="Layer_1" xmlns="http://www.w3.org/2000/svg" xmlns:xlink="http://www.w3.org/1999/xlink" x="0px" y="0px"
	 viewBox="0 0 57 57" style="enable-background:new 0 0 57 57;" xml:space="preserve">
<style type="text/css">
	.st0{fill:url(#SVGID_1_);stroke:#FFFFFF;stroke-width:3;}
	.st1{fill:#FFFFFF;}
</style>
<g id="Groupe_414">
	<g id="Ellipse_7">
		
			<linearGradient id="SVGID_1_" gradientUnits="userSpaceOnUse" x1="-403.9145" y1="-14.49" x2="-403.4344" y2="-13.68" gradientTransform="matrix(54 0 0 54 21827.0195 789.2598)">
			<stop  offset="0" style="stop-color:#FED44C"/>
			<stop  offset="0.63" style="stop-color:#F1840E"/>
			<stop  offset="1" style="stop-color:#DE7403"/>
		</linearGradient>
		<circle class="st0" cx="28.5" cy="28.5" r="27"/>
	</g>
	<g id="comment">
		<path id="comment-2" class="st1" d="M40.5,26.8c0,4.6-5.4,8.3-12,8.3c-0.6,0-1.3,0-1.9-0.1c-1.8,1.5-3.9,2.6-6.2,3.2
			c-0.5,0.1-1,0.2-1.5,0.3c-0.3,0-0.6-0.2-0.6-0.5l0,0c-0.1-0.3,0.2-0.5,0.4-0.8c1.2-1,2-2.4,2.4-3.9c-2.8-1.5-4.5-3.9-4.5-6.5
			c0-4.6,5.4-8.3,12-8.3S40.5,22.2,40.5,26.8z"/>
	</g>
</g>
</svg>
