<svg id="Search" xmlns="http://www.w3.org/2000/svg" width="23.833" height="23.832" viewBox="0 0 23.833 23.832">
  <path d="M305.2,301.922l-5.678-5.679a10.931,10.931,0,0,1-3.282,3.281l5.679,5.679a2.32,2.32,0,0,0,3.281-3.281Z" transform="translate(-282.043 -282.051)"/>
  <path d="M18.565,9.282a9.282,9.282,0,1,0-9.282,9.282A9.282,9.282,0,0,0,18.565,9.282ZM9.283,16.243a6.961,6.961,0,1,1,6.962-6.961A6.969,6.969,0,0,1,9.283,16.243Z" transform="translate(-0.001)"/>
  <path d="M75.817,81.23h1.547a3.872,3.872,0,0,1,3.868-3.868V75.816A5.421,5.421,0,0,0,75.817,81.23Z" transform="translate(-72.134 -72.133)"/>
</svg>