<svg xmlns="http://www.w3.org/2000/svg" width="17.001" height="17" viewBox="0 0 17.001 17">
  <path d="M302.627,300.294l-4.051-4.051a7.8,7.8,0,0,1-2.341,2.341l4.051,4.051a1.655,1.655,0,0,0,2.341-2.34Z" transform="translate(-286.112 -286.119)" fill="currentColor"/>
  <path d="M13.243,6.621a6.621,6.621,0,1,0-6.621,6.621A6.621,6.621,0,0,0,13.243,6.621ZM6.622,11.587a4.966,4.966,0,1,1,4.966-4.966A4.971,4.971,0,0,1,6.622,11.587Z" transform="translate(-0.001)" fill="currentColor"/>
  <path d="M75.817,79.678h1.1a2.762,2.762,0,0,1,2.759-2.759v-1.1A3.867,3.867,0,0,0,75.817,79.678Z" transform="translate(-73.19 -73.189)" fill="currentColor"/>
</svg>
